<?xml version="1.0" encoding="UTF-8" standalone="no"?>
<!DOCTYPE svg PUBLIC "-//W3C//DTD SVG 1.1//EN" "http://www.w3.org/Graphics/SVG/1.1/DTD/svg11.dtd">
<svg width="100%" height="100%" viewBox="0 0 15 9" version="1.1" xmlns="http://www.w3.org/2000/svg" xmlns:xlink="http://www.w3.org/1999/xlink" xml:space="preserve" xmlns:serif="http://www.serif.com/" style="fill-rule:evenodd;clip-rule:evenodd;stroke-linejoin:round;stroke-miterlimit:2;">
    <g>
        <path d="M4.294,4.886L3.257,4.886L3.257,7.679C3.257,7.786 3.235,7.868 3.19,7.927C3.145,7.985 3.071,8.016 2.967,8.016L2.695,8.016L2.695,8.632C2.736,8.647 2.784,8.661 2.841,8.672C2.898,8.683 2.957,8.692 3.017,8.701C3.077,8.709 3.135,8.716 3.192,8.72C3.249,8.724 3.299,8.726 3.341,8.726C3.507,8.726 3.65,8.708 3.77,8.673C3.891,8.637 3.988,8.581 4.067,8.505C4.144,8.429 4.201,8.331 4.238,8.213C4.275,8.095 4.294,7.951 4.294,7.783L4.294,4.886Z" style="fill:white;fill-rule:nonzero;"/>
        <path d="M6.09,4.822C5.855,4.822 5.647,4.842 5.469,4.883C5.29,4.924 5.14,4.981 5.019,5.056C4.898,5.131 4.806,5.22 4.745,5.324C4.684,5.428 4.654,5.544 4.654,5.671L4.654,5.708C4.654,5.719 4.656,5.731 4.659,5.745L5.681,5.745L5.681,5.722C5.681,5.676 5.693,5.638 5.716,5.608C5.74,5.577 5.771,5.552 5.809,5.534C5.847,5.515 5.89,5.502 5.936,5.494C5.983,5.487 6.029,5.483 6.075,5.483C6.131,5.483 6.183,5.49 6.232,5.503C6.282,5.517 6.324,5.537 6.36,5.563C6.395,5.589 6.423,5.623 6.445,5.665C6.466,5.706 6.476,5.755 6.476,5.811L6.476,5.946C6.177,5.946 5.909,5.958 5.673,5.982C5.438,6.007 5.239,6.055 5.076,6.126C4.913,6.197 4.789,6.297 4.704,6.425C4.618,6.553 4.575,6.719 4.575,6.924C4.575,7.069 4.599,7.189 4.646,7.289C4.694,7.386 4.76,7.467 4.845,7.527C4.929,7.588 5.031,7.631 5.151,7.658C5.27,7.684 5.401,7.697 5.544,7.697C5.664,7.697 5.774,7.688 5.873,7.669C5.972,7.65 6.063,7.625 6.146,7.593C6.229,7.56 6.304,7.524 6.372,7.482C6.44,7.441 6.503,7.397 6.56,7.351C6.608,7.456 6.695,7.54 6.821,7.603C6.947,7.665 7.115,7.697 7.325,7.697C7.412,7.697 7.489,7.692 7.557,7.682C7.624,7.671 7.681,7.66 7.727,7.646C7.781,7.631 7.828,7.613 7.867,7.593L7.867,6.993L7.679,6.993C7.621,6.993 7.579,6.973 7.553,6.934C7.527,6.895 7.513,6.847 7.513,6.789L7.513,5.717C7.513,5.547 7.475,5.405 7.398,5.291C7.321,5.177 7.217,5.085 7.085,5.015C6.954,4.946 6.802,4.896 6.63,4.867C6.458,4.837 6.278,4.822 6.09,4.822ZM6.476,6.67C6.476,6.726 6.462,6.777 6.435,6.824C6.407,6.87 6.369,6.911 6.321,6.944C6.274,6.978 6.219,7.005 6.157,7.023C6.096,7.042 6.032,7.051 5.966,7.051C5.921,7.051 5.878,7.047 5.836,7.04C5.794,7.033 5.756,7.019 5.723,7C5.69,6.983 5.663,6.955 5.643,6.922C5.621,6.888 5.612,6.844 5.612,6.789C5.612,6.739 5.628,6.692 5.661,6.648C5.693,6.605 5.744,6.568 5.813,6.537C5.883,6.505 5.972,6.481 6.081,6.463C6.19,6.445 6.322,6.436 6.476,6.436L6.476,6.67Z" style="fill:white;fill-rule:nonzero;"/>
        <path d="M10.88,4.886L9.845,4.886L9.845,6.5C9.845,6.559 9.835,6.614 9.815,6.666C9.795,6.718 9.765,6.764 9.727,6.803C9.689,6.843 9.643,6.875 9.59,6.897C9.537,6.92 9.478,6.932 9.413,6.932C9.296,6.932 9.209,6.895 9.15,6.822C9.092,6.75 9.062,6.656 9.062,6.54L9.062,4.886L8.028,4.886L8.028,6.665C8.028,6.828 8.047,6.973 8.086,7.102C8.125,7.23 8.184,7.337 8.263,7.425C8.342,7.513 8.441,7.58 8.562,7.627C8.682,7.674 8.824,7.697 8.986,7.697C9.083,7.697 9.178,7.686 9.272,7.664C9.366,7.642 9.456,7.61 9.54,7.568C9.625,7.527 9.703,7.477 9.775,7.417C9.847,7.358 9.911,7.291 9.965,7.217L10.031,7.633L10.88,7.633L10.88,4.886Z" style="fill:white;fill-rule:nonzero;"/>
        <path d="M13.106,4.822C13.009,4.822 12.914,4.834 12.82,4.856C12.726,4.879 12.637,4.911 12.552,4.953C12.467,4.995 12.388,5.045 12.316,5.103C12.243,5.161 12.18,5.227 12.127,5.3L12.061,4.886L11.212,4.886L11.212,7.633L12.247,7.633L12.247,6.019C12.247,5.962 12.257,5.907 12.277,5.854C12.298,5.802 12.327,5.755 12.365,5.716C12.403,5.676 12.449,5.644 12.502,5.621C12.556,5.599 12.615,5.587 12.679,5.587C12.796,5.587 12.884,5.624 12.942,5.696C13.001,5.769 13.03,5.863 13.03,5.979L13.03,7.633L14.064,7.633L14.064,5.854C14.064,5.691 14.045,5.546 14.006,5.418C13.967,5.29 13.908,5.182 13.829,5.094C13.75,5.006 13.651,4.94 13.531,4.892C13.41,4.845 13.269,4.822 13.106,4.822Z" style="fill:white;fill-rule:nonzero;"/>
        <path d="M1.143,0.832L0.109,0.832L0.109,4.605L0.953,4.605L1.042,4.214C1.143,4.368 1.268,4.482 1.415,4.557C1.563,4.632 1.73,4.669 1.915,4.669C2.097,4.669 2.26,4.639 2.404,4.58C2.548,4.521 2.67,4.431 2.769,4.31C2.868,4.19 2.944,4.04 2.996,3.859C3.049,3.679 3.075,3.467 3.075,3.225C3.075,2.986 3.049,2.777 2.996,2.597C2.944,2.418 2.868,2.269 2.769,2.15C2.67,2.031 2.548,1.942 2.404,1.883C2.26,1.824 2.097,1.794 1.915,1.794C1.759,1.794 1.615,1.82 1.487,1.873C1.358,1.925 1.243,2.005 1.143,2.112L1.143,0.832ZM1.593,2.559C1.675,2.559 1.744,2.572 1.8,2.597C1.857,2.623 1.903,2.659 1.938,2.707C1.974,2.754 2,2.81 2.017,2.876C2.033,2.941 2.04,3.014 2.04,3.096L2.04,3.373C2.04,3.454 2.033,3.527 2.017,3.592C2,3.658 1.974,3.713 1.938,3.759C1.903,3.805 1.857,3.84 1.8,3.866C1.744,3.891 1.675,3.904 1.593,3.904C1.512,3.904 1.442,3.889 1.385,3.858C1.327,3.828 1.28,3.786 1.243,3.732C1.205,3.679 1.178,3.617 1.16,3.547C1.142,3.476 1.133,3.401 1.133,3.319L1.133,3.149C1.133,3.068 1.142,2.991 1.16,2.92C1.178,2.849 1.205,2.787 1.243,2.733C1.28,2.68 1.327,2.638 1.385,2.606C1.442,2.575 1.512,2.559 1.593,2.559Z" style="fill:rgb(36,200,150);fill-rule:nonzero;"/>
        <path d="M4.913,1.789C4.831,1.789 4.752,1.799 4.675,1.818C4.598,1.838 4.527,1.867 4.462,1.907C4.396,1.947 4.337,1.997 4.285,2.058C4.232,2.119 4.19,2.191 4.158,2.272L4.092,1.858L3.243,1.858L3.243,4.605L4.277,4.605L4.277,3.383C4.277,3.28 4.288,3.187 4.309,3.104C4.33,3.022 4.365,2.953 4.413,2.896C4.462,2.839 4.525,2.796 4.603,2.766C4.681,2.737 4.775,2.722 4.887,2.722L5.22,2.722L5.22,1.853C5.197,1.841 5.169,1.831 5.139,1.822C5.112,1.814 5.08,1.806 5.042,1.799C5.005,1.792 4.962,1.789 4.913,1.789Z" style="fill:rgb(36,200,150);fill-rule:nonzero;"/>
        <path d="M6.234,1.794C6.011,1.794 5.809,1.824 5.628,1.883C5.446,1.942 5.292,2.032 5.163,2.151C5.035,2.271 4.936,2.42 4.867,2.6C4.798,2.779 4.763,2.99 4.763,3.23C4.763,3.478 4.798,3.692 4.869,3.872C4.94,4.052 5.042,4.202 5.174,4.321C5.306,4.439 5.467,4.527 5.657,4.584C5.846,4.64 6.059,4.669 6.294,4.669C6.529,4.669 6.736,4.644 6.911,4.595C7.089,4.546 7.236,4.476 7.355,4.384C7.474,4.293 7.562,4.181 7.621,4.05C7.68,3.919 7.709,3.771 7.709,3.606L6.754,3.606C6.754,3.662 6.745,3.714 6.728,3.763C6.712,3.811 6.684,3.853 6.646,3.89C6.608,3.926 6.559,3.955 6.497,3.975C6.436,3.995 6.361,4.005 6.272,4.005C6.085,4.005 5.951,3.953 5.87,3.849C5.788,3.745 5.748,3.598 5.748,3.408L7.709,3.408L7.709,3.23C7.709,2.983 7.677,2.769 7.611,2.588C7.546,2.408 7.451,2.259 7.325,2.141C7.199,2.023 7.045,1.936 6.862,1.879C6.678,1.823 6.469,1.794 6.234,1.794ZM6.272,2.455C6.413,2.455 6.522,2.496 6.599,2.578C6.676,2.66 6.715,2.774 6.715,2.918L5.752,2.918C5.77,2.775 5.82,2.663 5.901,2.58C5.983,2.497 6.106,2.455 6.272,2.455Z" style="fill:rgb(36,200,150);fill-rule:nonzero;"/>
        <path d="M9.015,0.77C8.868,0.77 8.732,0.785 8.608,0.818C8.485,0.848 8.379,0.901 8.291,0.976C8.203,1.05 8.134,1.15 8.085,1.274C8.036,1.399 8.01,1.555 8.01,1.743L8.01,1.858L7.625,1.858L7.625,2.559L8.01,2.559L8.01,4.605L9.046,4.605L9.046,2.559L9.577,2.559L9.577,1.858L9.046,1.858L9.046,1.748C9.046,1.701 9.05,1.659 9.06,1.624C9.069,1.588 9.085,1.559 9.107,1.537C9.129,1.515 9.158,1.499 9.196,1.488C9.233,1.477 9.28,1.471 9.338,1.471L9.577,1.471L9.577,0.861C9.541,0.849 9.499,0.839 9.451,0.826C9.403,0.814 9.353,0.804 9.301,0.796C9.249,0.789 9.198,0.783 9.147,0.777C9.096,0.772 9.052,0.77 9.015,0.77Z" style="fill:rgb(36,200,150);fill-rule:nonzero;"/>
        <path d="M10.854,0.77C10.707,0.77 10.571,0.785 10.447,0.818C10.324,0.848 10.218,0.901 10.13,0.976C10.042,1.05 9.973,1.15 9.924,1.274C9.875,1.399 9.85,1.555 9.85,1.743L9.85,1.858L9.464,1.858L9.464,2.559L9.85,2.559L9.85,4.605L10.885,4.605L10.885,2.559L11.416,2.559L11.416,1.858L10.885,1.858L10.885,1.748C10.885,1.701 10.889,1.659 10.899,1.624C10.908,1.588 10.924,1.559 10.946,1.537C10.968,1.515 10.997,1.499 11.035,1.488C11.072,1.477 11.119,1.471 11.177,1.471L11.416,1.471L11.416,0.861C11.38,0.849 11.338,0.839 11.29,0.826C11.242,0.814 11.192,0.804 11.14,0.796C11.088,0.789 11.037,0.783 10.986,0.777C10.936,0.772 10.891,0.77 10.854,0.77Z" style="fill:rgb(36,200,150);fill-rule:nonzero;"/>
    </g>
</svg>
